<svg xmlns="http://www.w3.org/2000/svg" xmlns:xlink="http://www.w3.org/1999/xlink" viewBox="0 0 405.92 176.28"><defs><style>.cls-1{fill:url(#Gradiente_sem_nome_21);}.cls-2{fill:none;stroke:#fff;stroke-miterlimit:10;}.cls-3{fill:url(#Gradiente_sem_nome_21-2);}.cls-4{fill:url(#Gradiente_sem_nome_3);}.cls-5{fill:#fff;}</style><linearGradient id="Gradiente_sem_nome_21" x1="6.29" y1="164.01" x2="319.46" y2="164.01" gradientUnits="userSpaceOnUse"><stop offset="0"/><stop offset="1" stop-color="#1dd868"/></linearGradient><linearGradient id="Gradiente_sem_nome_21-2" x1="301.05" y1="164.01" x2="319.51" y2="164.01" xlink:href="#Gradiente_sem_nome_21"/><linearGradient id="Gradiente_sem_nome_3" x1="305.37" y1="164.01" x2="315.19" y2="164.01" gradientUnits="userSpaceOnUse"><stop offset="0" stop-color="#1dd868"/><stop offset="1"/></linearGradient></defs><title>logo-update-2</title><g id="Layer_2" data-name="Layer 2"><g id="Camada_1" data-name="Camada 1"><rect class="cls-1" x="6.29" y="156.8" width="313.17" height="14.43" rx="7.21"/><rect class="cls-2" x="1.85" y="152.25" width="402.19" height="23.53" rx="9.94"/><circle class="cls-3" cx="310.28" cy="164.01" r="9.23"/><circle class="cls-4" cx="310.28" cy="164.01" r="4.91"/><path class="cls-5" d="M32.53,138.42a31.37,31.37,0,0,1-23-9.48A31.29,31.29,0,0,1,0,106V0H20.16V105.74a11.27,11.27,0,0,0,3.48,8.32A11.47,11.47,0,0,0,32,117.51a11.71,11.71,0,0,0,11.77-11.77V0H65.28V106a31,31,0,0,1-9.6,23.08A31.9,31.9,0,0,1,32.53,138.42Z"/><path class="cls-5" d="M106,0q15.06,0,24,9.52,8.31,9.06,8.32,23.08V52.46a31.76,31.76,0,0,1-9.43,23.08,30.79,30.79,0,0,1-22.82,9.6H94.2V136.7H73.59V0Zm12.29,33a11.86,11.86,0,0,0-3.18-8.65,11.41,11.41,0,0,0-8.55-3.26H94.2V64.75h12.4a11.21,11.21,0,0,0,8.33-3.48,11.58,11.58,0,0,0,3.4-8.36Z"/><path class="cls-5" d="M209.6,104a31.57,31.57,0,0,1-9.52,23.08,31,31,0,0,1-22.86,9.6H144.85V0h32.37a31,31,0,0,1,22.94,9.59,31.67,31.67,0,0,1,9.44,23Zm-44.14,12.29h12.4a10.92,10.92,0,0,0,8.29-3.56,11.77,11.77,0,0,0,3.36-8.35V32.9a11.49,11.49,0,0,0-3.43-8.36,11.14,11.14,0,0,0-8.22-3.48h-12.4Z"/><path class="cls-5" d="M240.24,105.3l-5,31.4H213.79L236.94,0h28.41L288.2,136.7H266.62l-4.87-31.4Zm10.79-74-7.64,53.88h15.29Z"/><path class="cls-5" d="M298.24,20.61H276.35V0h64.31V20.61H318.85V136.7H298.24Z"/><path class="cls-5" d="M347.24,136.7V0h58.68V20.61H367.85V58.08h38.07V78.69H367.85v37.4h38.07V136.7Z"/></g></g></svg>