<svg xmlns="http://www.w3.org/2000/svg" xmlns:xlink="http://www.w3.org/1999/xlink" viewBox="0 0 116 61"><defs><style>.cls-1{opacity:0;}.cls-2{fill:url(#Gradiente_sem_nome_21);}.cls-3{fill:none;stroke:#fff;stroke-miterlimit:10;stroke-width:0.27px;}.cls-4{fill:url(#Gradiente_sem_nome_21-2);}.cls-5{fill:url(#Gradiente_sem_nome_3);}.cls-6{fill:#1dd868;}.cls-7{fill:#fff;}</style><linearGradient id="Gradiente_sem_nome_21" x1="4.4" y1="45.2" x2="89.76" y2="45.2" gradientUnits="userSpaceOnUse"><stop offset="0"/><stop offset="1" stop-color="#1dd868"/></linearGradient><linearGradient id="Gradiente_sem_nome_21-2" x1="84.73" y1="45.2" x2="89.76" y2="45.2" xlink:href="#Gradiente_sem_nome_21"/><linearGradient id="Gradiente_sem_nome_3" x1="85.9" y1="45.2" x2="88.58" y2="45.2" gradientUnits="userSpaceOnUse"><stop offset="0" stop-color="#1dd868"/><stop offset="1"/></linearGradient></defs><title>LogoUpdate</title><g id="Layer_2" data-name="Layer 2"><g id="Layer_1-2" data-name="Layer 1"><rect class="cls-1" width="116" height="61"/><rect class="cls-2" x="4.4" y="43.24" width="85.35" height="3.93" rx="1.97"/><rect class="cls-3" x="3.19" y="42" width="109.62" height="6.41" rx="3.21"/><circle class="cls-4" cx="87.24" cy="45.2" r="2.52"/><circle class="cls-5" cx="87.24" cy="45.2" r="1.34"/><path class="cls-6" d="M64.6,60.41H63.42l-.21-1.35H61.78l-.21,1.35H60.5L61.69,53h1.72Zm-2.67-2.36h1.13l-.57-3.77Z"/><path class="cls-6" d="M66.19,55v5.39H65.13V53H66.6l1.2,4.46V53h1v7.45h-1.2Z"/><path class="cls-6" d="M70.86,56.1h1.61v1.07H70.86v2.18h2v1.06H69.69V53h3.19V54h-2Z"/><path class="cls-6" d="M73.46,54.75a2,2,0,0,1,.43-1.39,2,2,0,0,1,2.59,0,2,2,0,0,1,.43,1.39V55H75.8v-.31a.83.83,0,0,0-.15-.56.58.58,0,0,0-.43-.17.59.59,0,0,0-.44.17.83.83,0,0,0-.15.56,1.34,1.34,0,0,0,.17.68,2.48,2.48,0,0,0,.43.55c.17.18.35.35.55.53a4.9,4.9,0,0,1,.54.57,2.74,2.74,0,0,1,.43.7,2.38,2.38,0,0,1,.17.93A2,2,0,0,1,76.48,60a1.7,1.7,0,0,1-1.31.48,1.68,1.68,0,0,1-1.3-.48,2,2,0,0,1-.44-1.39v-.46h1.1v.53a.75.75,0,0,0,.17.56.6.6,0,0,0,.44.16.58.58,0,0,0,.44-.16.75.75,0,0,0,.17-.56,1.37,1.37,0,0,0-.17-.68,3.15,3.15,0,0,0-.43-.55c-.17-.17-.35-.35-.55-.52a7.27,7.27,0,0,1-.54-.57,2.92,2.92,0,0,1-.43-.7A2.45,2.45,0,0,1,73.46,54.75Z"/><path class="cls-6" d="M77.25,53h3.62V54H79.65v6.38H78.47V54H77.25Z"/><path class="cls-6" d="M82.55,56.1h1.61v1.07H82.55v2.18h2v1.06h-3.2V53h3.2V54h-2Z"/><path class="cls-6" d="M85.15,54.75a2.06,2.06,0,0,1,.43-1.39,2,2,0,0,1,2.59,0,2,2,0,0,1,.43,1.39V55H87.49v-.31a.83.83,0,0,0-.15-.56.56.56,0,0,0-.43-.17.55.55,0,0,0-.43.17.78.78,0,0,0-.16.56,1.34,1.34,0,0,0,.17.68,2.82,2.82,0,0,0,.43.55c.17.18.35.35.55.53A5,5,0,0,1,88,57a2.71,2.71,0,0,1,.42.7,2.21,2.21,0,0,1,.17.93A2,2,0,0,1,88.17,60a1.68,1.68,0,0,1-1.3.48A1.7,1.7,0,0,1,85.56,60a2,2,0,0,1-.44-1.39v-.46h1.11v.53a.75.75,0,0,0,.16.56.6.6,0,0,0,.44.16.61.61,0,0,0,.45-.16.75.75,0,0,0,.16-.56,1.37,1.37,0,0,0-.17-.68,2.68,2.68,0,0,0-.42-.55L86.3,57a5.9,5.9,0,0,1-.55-.57,3.28,3.28,0,0,1-.43-.7A2.45,2.45,0,0,1,85.15,54.75Z"/><path class="cls-6" d="M89.28,53h1.17v7.45H89.28Z"/><path class="cls-6" d="M91.21,54.75a1.93,1.93,0,0,1,.46-1.39A1.72,1.72,0,0,1,93,52.88a1.75,1.75,0,0,1,1.32.48,2,2,0,0,1,.46,1.39v3.88A2,2,0,0,1,94.31,60,1.75,1.75,0,0,1,93,60.5,1.72,1.72,0,0,1,91.67,60a1.94,1.94,0,0,1-.46-1.39Zm1.17,4a.79.79,0,0,0,.17.57.59.59,0,0,0,.44.17.6.6,0,0,0,.44-.17.79.79,0,0,0,.17-.57v-4a.78.78,0,0,0-.17-.56.6.6,0,0,0-.44-.17.59.59,0,0,0-.44.17.78.78,0,0,0-.17.56Z"/><path class="cls-6" d="M95.52,53H96.7v6.39h1.92v1.06h-3.1Z"/><path class="cls-6" d="M99,54.75a1.93,1.93,0,0,1,.46-1.39,1.72,1.72,0,0,1,1.32-.48,1.75,1.75,0,0,1,1.32.48,2,2,0,0,1,.45,1.39v3.88a2,2,0,0,1-.45,1.39,1.75,1.75,0,0,1-1.32.48A1.72,1.72,0,0,1,99.5,60,1.94,1.94,0,0,1,99,58.63Zm1.17,4a.79.79,0,0,0,.16.57.61.61,0,0,0,.45.17.6.6,0,0,0,.44-.17.79.79,0,0,0,.16-.57v-4a.78.78,0,0,0-.16-.56.6.6,0,0,0-.44-.17.61.61,0,0,0-.45.17.78.78,0,0,0-.16.56Z"/><path class="cls-6" d="M105.11,56.26h1.64v2.37a2,2,0,0,1-.44,1.39,1.7,1.7,0,0,1-1.31.48,1.68,1.68,0,0,1-1.3-.48,2,2,0,0,1-.45-1.39V54.75a2,2,0,0,1,.45-1.39,1.68,1.68,0,0,1,1.3-.48,1.7,1.7,0,0,1,1.31.48,2,2,0,0,1,.44,1.39v.72h-1.11v-.8a.83.83,0,0,0-.16-.56.63.63,0,0,0-.45-.17.6.6,0,0,0-.44.17.78.78,0,0,0-.16.56v4a.75.75,0,0,0,.16.56.6.6,0,0,0,.44.16.62.62,0,0,0,.45-.16.8.8,0,0,0,.16-.56V57.33h-.53Z"/><path class="cls-6" d="M107.5,53h1.18v7.45H107.5Z"/><path class="cls-6" d="M113.32,60.41h-1.18l-.21-1.35H110.5l-.21,1.35h-1.07L110.41,53h1.72Zm-2.67-2.36h1.12l-.56-3.77Z"/><path class="cls-7" d="M11.55,38.23a8.51,8.51,0,0,1-6.28-2.59,8.5,8.5,0,0,1-2.59-6.26V.5h5.5V29.32a3.05,3.05,0,0,0,1,2.27,3.22,3.22,0,0,0,4.55,0,3.11,3.11,0,0,0,.93-2.27V.5h5.86V29.38a8.45,8.45,0,0,1-2.61,6.29A8.68,8.68,0,0,1,11.55,38.23Z"/><path class="cls-7" d="M31.58.5a8.53,8.53,0,0,1,6.54,2.59,9,9,0,0,1,2.27,6.3V14.8a8.66,8.66,0,0,1-2.57,6.29A8.42,8.42,0,0,1,31.6,23.7H28.36V37.76H22.74V.5Zm3.35,9a3.26,3.26,0,0,0-.86-2.36,3.13,3.13,0,0,0-2.33-.89H28.36V18.15h3.38A3.07,3.07,0,0,0,34,17.2a3.16,3.16,0,0,0,.92-2.28Z"/><path class="cls-7" d="M59.81,28.85a8.61,8.61,0,0,1-2.6,6.29A8.42,8.42,0,0,1,51,37.76H42.16V.5H51a8.46,8.46,0,0,1,6.26,2.61,8.67,8.67,0,0,1,2.57,6.28Zm-12,3.35h3.38a3,3,0,0,0,2.26-1A3.2,3.2,0,0,0,54.33,29V9.47a3.13,3.13,0,0,0-.93-2.28,3.06,3.06,0,0,0-2.24-1H47.78Z"/><path class="cls-7" d="M68.16,29.2l-1.37,8.56H61L67.26.5H75l6.23,37.26H75.35L74,29.2ZM71.1,9,69,23.72h4.17Z"/><path class="cls-7" d="M84,6.12H78V.5H95.53V6.12H89.59V37.76H84Z"/><path class="cls-7" d="M97.32,37.76V.5h16V6.12H102.94V16.33h10.38V22H102.94V32.14h10.38v5.62Z"/></g></g></svg>